<mxfile host="app.diagrams.net" modified="2022-02-22T15:35:42.028Z" agent="5.0 (Macintosh; Intel Mac OS X 10_14_6) AppleWebKit/537.36 (KHTML, like Gecko) Chrome/98.0.4758.102 Safari/537.36" etag="G-V4N_vzTSOu3OoViUdg" version="16.6.2" type="github">
  <diagram id="kgpKYQtTHZ0yAKxKKP6v" name="Page-1">
    <mxGraphModel dx="1186" dy="657" grid="1" gridSize="10" guides="1" tooltips="1" connect="1" arrows="1" fold="1" page="1" pageScale="1" pageWidth="850" pageHeight="1100" math="0" shadow="0">
      <root>
        <mxCell id="0" />
        <mxCell id="1" parent="0" />
        <mxCell id="3nuBFxr9cyL0pnOWT2aG-1" value="渲染进程一" style="shape=umlLifeline;perimeter=lifelinePerimeter;container=1;collapsible=0;recursiveResize=0;rounded=0;shadow=0;strokeWidth=1;" parent="1" vertex="1">
          <mxGeometry x="120" y="80" width="100" height="430" as="geometry" />
        </mxCell>
        <mxCell id="3nuBFxr9cyL0pnOWT2aG-2" value="" style="points=[];perimeter=orthogonalPerimeter;rounded=0;shadow=0;strokeWidth=1;" parent="3nuBFxr9cyL0pnOWT2aG-1" vertex="1">
          <mxGeometry x="45" y="70" width="10" height="320" as="geometry" />
        </mxCell>
        <mxCell id="3nuBFxr9cyL0pnOWT2aG-3" value="加载" style="verticalAlign=bottom;startArrow=oval;endArrow=block;startSize=8;shadow=0;strokeWidth=1;" parent="3nuBFxr9cyL0pnOWT2aG-1" target="3nuBFxr9cyL0pnOWT2aG-2" edge="1">
          <mxGeometry relative="1" as="geometry">
            <mxPoint x="-40" y="70" as="sourcePoint" />
          </mxGeometry>
        </mxCell>
        <mxCell id="iV0PJueEaWp3zU7fpc5A-6" value="" style="points=[];perimeter=orthogonalPerimeter;rounded=0;shadow=0;strokeWidth=1;" vertex="1" parent="3nuBFxr9cyL0pnOWT2aG-1">
          <mxGeometry x="50" y="170" width="10" height="180" as="geometry" />
        </mxCell>
        <mxCell id="3nuBFxr9cyL0pnOWT2aG-5" value="渲染进程二" style="shape=umlLifeline;perimeter=lifelinePerimeter;container=1;collapsible=0;recursiveResize=0;rounded=0;shadow=0;strokeWidth=1;" parent="1" vertex="1">
          <mxGeometry x="280" y="80" width="100" height="430" as="geometry" />
        </mxCell>
        <mxCell id="3nuBFxr9cyL0pnOWT2aG-6" value="" style="points=[];perimeter=orthogonalPerimeter;rounded=0;shadow=0;strokeWidth=1;" parent="3nuBFxr9cyL0pnOWT2aG-5" vertex="1">
          <mxGeometry x="45" y="80" width="10" height="310" as="geometry" />
        </mxCell>
        <mxCell id="iV0PJueEaWp3zU7fpc5A-19" value="" style="points=[];perimeter=orthogonalPerimeter;rounded=0;shadow=0;strokeWidth=1;" vertex="1" parent="3nuBFxr9cyL0pnOWT2aG-5">
          <mxGeometry x="50" y="270" width="10" height="70" as="geometry" />
        </mxCell>
        <mxCell id="iV0PJueEaWp3zU7fpc5A-1" value="主进程" style="shape=umlLifeline;perimeter=lifelinePerimeter;container=1;collapsible=0;recursiveResize=0;rounded=0;shadow=0;strokeWidth=1;" vertex="1" parent="1">
          <mxGeometry x="440" y="80" width="100" height="430" as="geometry" />
        </mxCell>
        <mxCell id="iV0PJueEaWp3zU7fpc5A-2" value="" style="points=[];perimeter=orthogonalPerimeter;rounded=0;shadow=0;strokeWidth=1;" vertex="1" parent="iV0PJueEaWp3zU7fpc5A-1">
          <mxGeometry x="45" y="80" width="10" height="310" as="geometry" />
        </mxCell>
        <mxCell id="iV0PJueEaWp3zU7fpc5A-3" value="" style="points=[];perimeter=orthogonalPerimeter;rounded=0;shadow=0;strokeWidth=1;" vertex="1" parent="iV0PJueEaWp3zU7fpc5A-1">
          <mxGeometry x="50" y="90" width="10" height="80" as="geometry" />
        </mxCell>
        <mxCell id="iV0PJueEaWp3zU7fpc5A-4" value="存储渲染进程 id" style="edgeStyle=orthogonalEdgeStyle;rounded=0;orthogonalLoop=1;jettySize=auto;html=1;entryX=0.9;entryY=0.763;entryDx=0;entryDy=0;entryPerimeter=0;" edge="1" parent="iV0PJueEaWp3zU7fpc5A-1">
          <mxGeometry x="0.0395" y="10" relative="1" as="geometry">
            <mxPoint x="60" y="101" as="sourcePoint" />
            <mxPoint x="59" y="152.03999999999996" as="targetPoint" />
            <Array as="points">
              <mxPoint x="110" y="101" />
              <mxPoint x="110" y="152" />
            </Array>
            <mxPoint as="offset" />
          </mxGeometry>
        </mxCell>
        <mxCell id="iV0PJueEaWp3zU7fpc5A-11" value="" style="points=[];perimeter=orthogonalPerimeter;rounded=0;shadow=0;strokeWidth=1;" vertex="1" parent="iV0PJueEaWp3zU7fpc5A-1">
          <mxGeometry x="50" y="190" width="10" height="70" as="geometry" />
        </mxCell>
        <mxCell id="iV0PJueEaWp3zU7fpc5A-14" style="edgeStyle=orthogonalEdgeStyle;rounded=0;orthogonalLoop=1;jettySize=auto;html=1;" edge="1" parent="iV0PJueEaWp3zU7fpc5A-1" source="iV0PJueEaWp3zU7fpc5A-11">
          <mxGeometry relative="1" as="geometry">
            <mxPoint x="59" y="240" as="targetPoint" />
            <Array as="points">
              <mxPoint x="110" y="200" />
              <mxPoint x="110" y="240" />
              <mxPoint x="59" y="240" />
            </Array>
          </mxGeometry>
        </mxCell>
        <mxCell id="iV0PJueEaWp3zU7fpc5A-15" value="查询到渲染进程二 id" style="edgeLabel;html=1;align=center;verticalAlign=middle;resizable=0;points=[];" vertex="1" connectable="0" parent="iV0PJueEaWp3zU7fpc5A-14">
          <mxGeometry x="-0.0692" y="1" relative="1" as="geometry">
            <mxPoint x="9" y="3" as="offset" />
          </mxGeometry>
        </mxCell>
        <mxCell id="iV0PJueEaWp3zU7fpc5A-7" style="edgeStyle=orthogonalEdgeStyle;rounded=0;orthogonalLoop=1;jettySize=auto;html=1;entryX=0;entryY=0.625;entryDx=0;entryDy=0;entryPerimeter=0;" edge="1" parent="1" source="3nuBFxr9cyL0pnOWT2aG-6" target="iV0PJueEaWp3zU7fpc5A-3">
          <mxGeometry relative="1" as="geometry">
            <Array as="points">
              <mxPoint x="370" y="220" />
              <mxPoint x="370" y="220" />
            </Array>
          </mxGeometry>
        </mxCell>
        <mxCell id="iV0PJueEaWp3zU7fpc5A-8" value="发送自己的窗口id" style="edgeLabel;html=1;align=center;verticalAlign=middle;resizable=0;points=[];" vertex="1" connectable="0" parent="iV0PJueEaWp3zU7fpc5A-7">
          <mxGeometry x="-0.0452" y="3" relative="1" as="geometry">
            <mxPoint y="-7" as="offset" />
          </mxGeometry>
        </mxCell>
        <mxCell id="3nuBFxr9cyL0pnOWT2aG-8" value="发送自己的窗口id" style="verticalAlign=bottom;endArrow=block;shadow=0;strokeWidth=1;entryX=0.1;entryY=0.175;entryDx=0;entryDy=0;entryPerimeter=0;exitX=1;exitY=0.111;exitDx=0;exitDy=0;exitPerimeter=0;" parent="1" source="3nuBFxr9cyL0pnOWT2aG-2" target="iV0PJueEaWp3zU7fpc5A-3" edge="1">
          <mxGeometry x="-0.5043" y="8" relative="1" as="geometry">
            <mxPoint x="180" y="184" as="sourcePoint" />
            <mxPoint x="520" y="170" as="targetPoint" />
            <mxPoint as="offset" />
          </mxGeometry>
        </mxCell>
        <mxCell id="iV0PJueEaWp3zU7fpc5A-9" value="给渲染进程二&#xa;发消息" style="verticalAlign=bottom;startArrow=oval;endArrow=block;startSize=8;shadow=0;strokeWidth=1;" edge="1" parent="1">
          <mxGeometry relative="1" as="geometry">
            <mxPoint x="80" y="260" as="sourcePoint" />
            <mxPoint x="170" y="260" as="targetPoint" />
          </mxGeometry>
        </mxCell>
        <mxCell id="iV0PJueEaWp3zU7fpc5A-12" style="edgeStyle=orthogonalEdgeStyle;rounded=0;orthogonalLoop=1;jettySize=auto;html=1;" edge="1" parent="1" source="iV0PJueEaWp3zU7fpc5A-6">
          <mxGeometry relative="1" as="geometry">
            <mxPoint x="490" y="280" as="targetPoint" />
            <Array as="points">
              <mxPoint x="260" y="280" />
              <mxPoint x="260" y="280" />
            </Array>
          </mxGeometry>
        </mxCell>
        <mxCell id="iV0PJueEaWp3zU7fpc5A-13" value="通过 sendSync&lt;br&gt;向主进程请求获取&lt;br&gt;渲染进程二的 id" style="edgeLabel;html=1;align=center;verticalAlign=middle;resizable=0;points=[];" vertex="1" connectable="0" parent="iV0PJueEaWp3zU7fpc5A-12">
          <mxGeometry x="-0.6129" y="1" relative="1" as="geometry">
            <mxPoint x="20" y="-29" as="offset" />
          </mxGeometry>
        </mxCell>
        <mxCell id="iV0PJueEaWp3zU7fpc5A-16" style="edgeStyle=orthogonalEdgeStyle;rounded=0;orthogonalLoop=1;jettySize=auto;html=1;dashed=1;endArrow=open;endFill=0;" edge="1" parent="1" source="iV0PJueEaWp3zU7fpc5A-11">
          <mxGeometry relative="1" as="geometry">
            <mxPoint x="182" y="305" as="targetPoint" />
            <Array as="points">
              <mxPoint x="182" y="305" />
            </Array>
          </mxGeometry>
        </mxCell>
        <mxCell id="iV0PJueEaWp3zU7fpc5A-18" value="回复数据" style="edgeLabel;html=1;align=center;verticalAlign=middle;resizable=0;points=[];" vertex="1" connectable="0" parent="iV0PJueEaWp3zU7fpc5A-16">
          <mxGeometry x="-0.3935" y="1" relative="1" as="geometry">
            <mxPoint x="13" y="-6" as="offset" />
          </mxGeometry>
        </mxCell>
        <mxCell id="iV0PJueEaWp3zU7fpc5A-20" style="edgeStyle=orthogonalEdgeStyle;rounded=0;orthogonalLoop=1;jettySize=auto;html=1;endArrow=block;endFill=1;exitX=1;exitY=0.754;exitDx=0;exitDy=0;exitPerimeter=0;" edge="1" parent="1" source="iV0PJueEaWp3zU7fpc5A-6" target="iV0PJueEaWp3zU7fpc5A-19">
          <mxGeometry relative="1" as="geometry" />
        </mxCell>
        <mxCell id="iV0PJueEaWp3zU7fpc5A-21" value="通过 sendTo&lt;br&gt;指定给渲染进程二&lt;br&gt;发送消息" style="edgeLabel;html=1;align=center;verticalAlign=middle;resizable=0;points=[];" vertex="1" connectable="0" parent="iV0PJueEaWp3zU7fpc5A-20">
          <mxGeometry x="-0.3067" y="-2" relative="1" as="geometry">
            <mxPoint x="18" y="-28" as="offset" />
          </mxGeometry>
        </mxCell>
      </root>
    </mxGraphModel>
  </diagram>
</mxfile>
